<?xml version="1.0" standalone="no"?>
<!DOCTYPE svg PUBLIC "-//W3C//DTD SVG 20010904//EN"
 "http://www.w3.org/TR/2001/REC-SVG-20010904/DTD/svg10.dtd">
<svg version="1.0" xmlns="http://www.w3.org/2000/svg"
 width="300.000000pt" height="150.000000pt" viewBox="0 0 300.000000 150.000000"
 preserveAspectRatio="xMidYMid meet">
<metadata>
Created by potrace 1.10, written by Peter Selinger 2001-2011
</metadata>
<g transform="translate(0.000000,150.000000) scale(0.100000,-0.100000)"
fill="#000000" stroke="none">
<path d="M130 881 c0 -14 6 -21 20 -21 18 0 20 -7 20 -65 l0 -65 58 0 c67 0
92 -18 92 -64 0 -29 -29 -46 -81 -46 -28 0 -29 2 -29 43 0 36 -3 43 -20 43
-17 0 -20 -7 -20 -43 0 -36 -3 -43 -20 -43 -14 0 -20 -7 -20 -21 0 -21 4 -21
88 -17 51 2 96 10 110 19 45 29 49 113 6 137 -16 9 -16 11 0 33 23 33 20 63
-8 96 -23 26 -31 28 -110 32 -82 3 -86 2 -86 -18z m159 -35 c7 -8 11 -27 9
-43 -3 -25 -8 -29 -45 -34 l-43 -5 0 48 c0 48 0 48 34 48 18 0 39 -6 45 -14z"/>
<path d="M510 880 c0 -19 7 -20 100 -20 93 0 100 1 100 20 0 19 -7 20 -100 20
-93 0 -100 -1 -100 -20z"/>
<path d="M884 740 c-51 -159 -51 -160 -28 -160 20 0 27 12 58 114 20 63 36
120 36 128 0 39 16 22 32 -34 22 -81 23 -78 -11 -78 -20 0 -30 -6 -34 -20 -5
-18 0 -20 38 -20 42 0 43 -1 55 -45 11 -38 17 -45 37 -45 18 0 24 4 20 14 -3
8 -27 80 -52 160 -44 141 -47 146 -73 146 -27 0 -29 -5 -78 -160z"/>
<path d="M1210 880 c0 -19 7 -20 110 -20 103 0 110 1 110 20 0 19 -7 20 -110
20 -103 0 -110 -1 -110 -20z"/>
<path d="M1570 880 c0 -19 7 -20 110 -20 103 0 110 1 110 20 0 19 -7 20 -110
20 -103 0 -110 -1 -110 -20z"/>
<path d="M1989 885 c-34 -18 -59 -81 -59 -146 0 -91 41 -150 104 -152 77 -2
116 49 116 152 0 91 -24 139 -77 155 -19 6 -23 3 -23 -12 0 -11 7 -23 15 -26
22 -8 45 -68 45 -114 0 -100 -59 -155 -109 -101 -40 43 -35 179 8 208 12 7 21
22 21 32 0 22 -6 23 -41 4z"/>
<path d="M2290 881 c0 -15 6 -21 21 -21 18 0 21 -5 17 -35 -4 -31 -1 -35 19
-35 20 0 23 5 23 35 0 33 2 35 33 35 38 0 57 -15 57 -45 0 -37 -15 -47 -75
-49 l-58 -1 2 -72 c2 -68 1 -73 -18 -73 -15 0 -21 -6 -21 -21 0 -21 4 -21 90
-17 82 4 93 7 117 31 37 37 37 93 1 120 -25 19 -25 20 -7 38 26 26 24 62 -5
96 -23 26 -31 28 -110 32 -82 3 -86 2 -86 -18z m168 -167 c22 -15 28 -48 13
-73 -5 -7 -29 -16 -55 -18 l-46 -6 0 57 0 56 33 0 c18 0 43 -7 55 -16z"/>
<path d="M2670 777 c0 -68 3 -126 6 -129 3 -3 14 -3 25 -1 17 5 20 12 17 44
l-4 39 68 0 c61 0 68 2 68 20 0 18 -7 20 -67 20 l-68 0 0 45 0 45 78 0 c70 0
77 2 77 20 0 19 -7 20 -100 20 l-100 0 0 -123z"/>
<path d="M510 710 l0 -130 100 0 c93 0 100 1 100 20 0 18 -7 20 -75 20 l-75 0
0 55 0 55 65 0 c58 0 65 2 65 20 0 18 -7 20 -65 20 l-65 0 0 35 c0 31 -3 35
-25 35 l-25 0 0 -130z"/>
<path d="M1300 709 c0 -126 1 -130 20 -127 20 3 21 10 23 131 2 126 2 127 -20
127 -23 0 -23 -2 -23 -131z"/>
<path d="M1660 709 c0 -126 1 -130 20 -127 20 3 21 10 23 131 2 126 2 127 -20
127 -23 0 -23 -2 -23 -131z"/>
<path d="M2670 600 c0 -19 7 -20 100 -20 93 0 100 1 100 20 0 19 -7 20 -100
20 -93 0 -100 -1 -100 -20z"/>
</g>
</svg>
